<svg height="512pt" viewBox="0 0 512 512" width="512pt" xmlns="http://www.w3.org/2000/svg" xmlns:xlink="http://www.w3.org/1999/xlink"><linearGradient id="a" gradientUnits="userSpaceOnUse" x1="0" x2="512" y1="256" y2="256"><stop offset="0" stop-color="#00f2fe"/><stop offset=".0208" stop-color="#03effe"/><stop offset=".2931" stop-color="#24d2fe"/><stop offset=".5538" stop-color="#3cbdfe"/><stop offset=".7956" stop-color="#4ab0fe"/><stop offset="1" stop-color="#4facfe"/></linearGradient><path d="m256 335c-16.058594 0-31.148438-6.285156-42.488281-17.703125l-77.699219-78.199219c-7.785156-7.835937-7.746094-20.5.089844-28.285156 7.835937-7.785156 20.5-7.746094 28.285156.089844l77.699219 78.203125c3.777343 3.800781 8.789062 5.894531 14.113281 5.894531s10.335938-2.09375 14.113281-5.894531l77.699219-78.203125c7.785156-7.835938 20.449219-7.875 28.285156-.089844 7.835938 7.785156 7.875 20.449219.089844 28.285156l-77.699219 78.199219c-11.339843 11.417969-26.429687 17.703125-42.488281 17.703125zm132.460938 140.105469c9.449218-5.722657 12.46875-18.019531 6.746093-27.464844-5.722656-9.449219-18.023437-12.46875-27.46875-6.746094-33.59375 20.347657-72.234375 31.105469-111.738281 31.105469-119.101562 0-216-96.898438-216-216s96.898438-216 216-216 216 96.898438 216 216c0 42.589844-12.664062 84.042969-36.625 119.886719-6.140625 9.179687-3.671875 21.601562 5.511719 27.742187 9.179687 6.136719 21.601562 3.671875 27.742187-5.511718 28.371094-42.441407 43.371094-91.585938 43.371094-142.117188 0-68.378906-26.628906-132.667969-74.980469-181.019531-48.351562-48.351563-112.640625-74.980469-181.019531-74.980469s-132.667969 26.628906-181.019531 74.980469c-48.351563 48.351562-74.980469 112.640625-74.980469 181.019531s26.628906 132.667969 74.980469 181.019531c48.351562 48.351563 112.640625 74.980469 181.019531 74.980469 46.8125 0 92.617188-12.757812 132.460938-36.894531zm0 0" fill="url(#a)"/></svg>