<svg version="1.1" id="Layer_1" xmlns="http://www.w3.org/2000/svg" xmlns:xlink="http://www.w3.org/1999/xlink" x="0px" y="0px" viewBox="0 0 512 512" style="enable-background:new 0 0 512 512;" xml:space="preserve">
<g>
	<linearGradient id="SVGID_1_" gradientUnits="userSpaceOnUse" x1="26.6329" y1="256" x2="485.3671" y2="256">
		<stop offset="0" style="stop-color:#00F2FE"/>
		<stop offset="0.0208" style="stop-color:#03EFFE"/>
		<stop offset="0.2931" style="stop-color:#24D2FE"/>
		<stop offset="0.5538" style="stop-color:#3CBDFE"/>
		<stop offset="0.7956" style="stop-color:#4AB0FE"/>
		<stop offset="1" style="stop-color:#4FACFE"/>
	</linearGradient>
	
		<path style="fill:none;stroke:url(#SVGID_1_);stroke-width:40;stroke-linecap:round;stroke-linejoin:round;stroke-miterlimit:10;" d="&#10;&#9;&#9;M77.541,69.319L240.393,20l162.852,49.319 M400.86,274.366c1.557-5.272,2.385-10.825,2.385-16.528v-88.149 M77.541,169.688v88.149&#10;&#9;&#9;c0,25.71,16.829,48.39,41.435,55.842l122.984,37.066 M430.905,122.964l-27.66-53.645l-162.852,49.319l32.566,63.16&#10;&#9;&#9;c6.431,12.473,20.851,18.575,34.282,14.508l106.243-32.175C430.876,158.863,439.233,139.115,430.905,122.964z M240.393,118.639&#10;&#9;&#9;L77.541,69.319l-27.66,53.645c-8.328,16.151,0.029,35.899,17.421,41.166l106.243,32.175c13.431,4.067,27.851-2.035,34.282-14.508&#10;&#9;&#9;L240.393,118.639z M240.393,130.317v218.13 M352.88,350.746v52.989 M327.033,382.578l25.847,25.702l25.847-25.702 M462.015,406.878&#10;&#9;&#9;c2.189-8.76,3.352-17.927,3.352-27.365c0-62.125-50.362-112.487-112.487-112.487s-112.487,50.362-112.487,112.487&#10;&#9;&#9;S290.755,492,352.88,492c15.588,0,30.436-3.171,43.933-8.903"/>
</g>
<g>
</g>
<g>
</g>
<g>
</g>
<g>
</g>
<g>
</g>
<g>
</g>
<g>
</g>
<g>
</g>
<g>
</g>
<g>
</g>
<g>
</g>
<g>
</g>
<g>
</g>
<g>
</g>
<g>
</g>
</svg>