<?xml version="1.0" encoding="iso-8859-1"?>
<!-- Generator: Adobe Illustrator 19.0.0, SVG Export Plug-In . SVG Version: 6.00 Build 0)  -->
<svg version="1.1" id="Capa_1" xmlns="http://www.w3.org/2000/svg" xmlns:xlink="http://www.w3.org/1999/xlink" x="0px" y="0px"
	 viewBox="0 0 512 512" style="enable-background:new 0 0 512 512;" xml:space="preserve">
<linearGradient id="SVGID_1_" gradientUnits="userSpaceOnUse" x1="1.1914" y1="256.457" x2="513.1914" y2="256.457" gradientTransform="matrix(0.9961 0 0 -0.9961 -0.1907 511.4591)">
	<stop  offset="0" style="stop-color:#00F2FE"/>
	<stop  offset="0.021" style="stop-color:#03EFFE"/>
	<stop  offset="0.293" style="stop-color:#24D2FE"/>
	<stop  offset="0.554" style="stop-color:#3CBDFE"/>
	<stop  offset="0.796" style="stop-color:#4AB0FE"/>
	<stop  offset="1" style="stop-color:#4FACFE"/>
</linearGradient>
<path style="fill:url(#SVGID_1_);" d="M511.004,492.078c0,11.003-8.919,19.922-19.922,19.922H20.918
	c-11.003,0-19.922-8.919-19.922-19.922s8.919-19.922,19.922-19.922h470.163C502.085,472.156,511.004,481.075,511.004,492.078z
	 M343.658,432.311h56.778c38.448,0,69.728-31.28,69.728-69.728c0-11.003-8.919-19.922-19.922-19.922
	c-11.003,0-19.922,8.919-19.922,19.922c0,16.478-13.406,29.883-29.883,29.883h-56.778c-16.478,0-29.883-13.406-29.883-29.883V69.728
	c0-16.478,13.406-29.883,29.883-29.883h56.778c16.478,0,29.883,13.406,29.883,29.883v192.249c0,11.003,8.919,19.922,19.922,19.922
	c11.003,0,19.922-8.919,19.922-19.922V69.728C470.163,31.28,438.884,0,400.436,0h-56.778C305.21,0,273.93,31.28,273.93,69.728
	v292.856C273.93,401.031,305.21,432.311,343.658,432.311z M39.844,362.584V249.027c0-38.448,31.28-69.728,69.728-69.728h56.778
	c38.448,0,69.728,31.28,69.728,69.728v113.556c0,38.448-31.28,69.728-69.728,69.728h-56.778
	C71.124,432.311,39.844,401.031,39.844,362.584z M79.689,362.584c0,16.478,13.406,29.883,29.883,29.883h56.778
	c16.478,0,29.883-13.406,29.883-29.883V249.027c0-16.478-13.406-29.883-29.883-29.883h-56.778
	c-16.478,0-29.883,13.406-29.883,29.883V362.584z"/>
<g>
</g>
<g>
</g>
<g>
</g>
<g>
</g>
<g>
</g>
<g>
</g>
<g>
</g>
<g>
</g>
<g>
</g>
<g>
</g>
<g>
</g>
<g>
</g>
<g>
</g>
<g>
</g>
<g>
</g>
</svg>
