<svg height="512pt" viewBox="1 0 511 512" width="512pt" xmlns="http://www.w3.org/2000/svg" xmlns:xlink="http://www.w3.org/1999/xlink"><linearGradient id="a" gradientUnits="userSpaceOnUse" x1=".49974" x2="512.499726" y1="256" y2="256"><stop offset="0" stop-color="#00f2fe"/><stop offset=".0208" stop-color="#03effe"/><stop offset=".2931" stop-color="#24d2fe"/><stop offset=".5538" stop-color="#3cbdfe"/><stop offset=".7956" stop-color="#4ab0fe"/><stop offset="1" stop-color="#4facfe"/></linearGradient><path d="m432.5 200c0 11.046875-8.953125 20-20 20h-127c-11.046875 0-20-8.953125-20-20s8.953125-20 20-20h127c11.046875 0 20 8.953125 20 20zm-20 50h-127c-11.046875 0-20 8.953125-20 20s8.953125 20 20 20h127c11.046875 0 20-8.953125 20-20s-8.953125-20-20-20zm20 90c0-11.046875-8.953125-20-20-20h-127c-11.046875 0-20 8.953125-20 20s8.953125 20 20 20h127c11.046875 0 20-8.953125 20-20zm-147 50c-11.046875 0-20 8.953125-20 20s8.953125 20 20 20h67c11.046875 0 20-8.953125 20-20s-8.953125-20-20-20zm207-39c11.046875 0 20-8.953125 20-20v-150.878906c0-44.109375-35.886719-80-80-80h-167c-44.113281 0-80 35.890625-80 80v251.878906c0 44.113281 35.886719 80 80 80h167c44.113281 0 80-35.886719 80-80 0-11.046875-8.953125-20-20-20s-20 8.953125-20 20c0 22.054688-17.945312 40-40 40h-167c-22.054688 0-40-17.945312-40-40v-251.878906c0-22.054688 17.945312-40 40-40h167c22.054688 0 40 17.945312 40 40v150.878906c0 11.046875 8.953125 20 20 20zm-329.75-311h80.75c11.046875 0 20-8.953125 20-20s-8.953125-20-20-20h-80.75c-58.585938 0-106.25 47.664062-106.25 106.25v75.519531l-22.171875-21.21875c-7.980469-7.640625-20.640625-7.359375-28.277344.621094s-7.359375 20.640625.621094 28.277344l32.144531 30.765625c10.683594 10.492187 24.683594 15.738281 38.683594 15.738281 14.054688 0 28.109375-5.289063 38.808594-15.867187.074218-.074219.144531-.144532.21875-.21875l31.25-31.863282c7.734375-7.886718 7.613281-20.550781-.273438-28.28125-7.886718-7.738281-20.550781-7.613281-28.28125.273438l-22.722656 23.167968v-76.914062c0-36.53125 29.71875-66.25 66.25-66.25zm0 0" fill="url(#a)"/></svg>