<svg viewBox="0 0 511.99986 511" xmlns="http://www.w3.org/2000/svg" xmlns:xlink="http://www.w3.org/1999/xlink"><linearGradient id="a" gradientUnits="userSpaceOnUse" x1="0" x2="511.99943142" y1="256.46671571" y2="256.46671571"><stop offset="0" stop-color="#00f2fe"/><stop offset=".0208" stop-color="#03effe"/><stop offset=".2931" stop-color="#24d2fe"/><stop offset=".5538" stop-color="#3cbdfe"/><stop offset=".7956" stop-color="#4ab0fe"/><stop offset="1" stop-color="#4facfe"/></linearGradient><path d="m472.003906 342.457031v-76.992187c0-22.050782-17.941406-39.992188-39.992187-39.992188h-91.988281c-22.054688 0-39.996094 17.941406-39.996094 39.992188v166.980468c0 22.050782 17.941406 39.992188 39.996094 39.992188h91.988281c22.050781 0 39.992187-17.941406 39.992187-39.992188 0-11.046874 8.953125-20 20-20 11.042969 0 19.996094 8.953126 19.996094 20 0 44.105469-35.882812 79.988282-79.988281 79.988282h-91.988281c-44.109376 0-79.992188-35.882813-79.992188-79.988282v-166.980468c0-44.105469 35.882812-79.988282 79.992188-79.988282h91.988281c44.105469 0 79.988281 35.882813 79.988281 79.988282v76.992187c0 11.042969-8.953125 19.996094-19.996094 19.996094-11.046875 0-20-8.953125-20-19.996094zm-49.992187-82.035156h-71.992188c-11.042969 0-19.996093 8.953125-19.996093 19.996094 0 11.046875 8.953124 20 19.996093 20h71.992188c11.042969 0 19.996093-8.953125 19.996093-20 0-11.042969-8.953124-19.996094-19.996093-19.996094zm-50.992188 90.988281c0-11.042968-8.953125-19.996094-20-19.996094-11.042969 0-19.996093 8.949219-19.996093 19.996094 0 11.042969 8.953124 19.996094 19.996093 19.996094 11.046875 0 20-8.953125 20-19.996094zm70.988281 0c0-11.042968-8.953124-19.996094-19.996093-19.996094s-19.996094 8.949219-19.996094 19.996094c0 11.042969 8.953125 19.996094 19.996094 19.996094s19.996093-8.953125 19.996093-19.996094zm-90.988281 50.992188c-11.042969 0-19.996093 8.953125-19.996093 20 0 11.042968 8.953124 19.996094 19.996093 19.996094 11.046875 0 20-8.953126 20-19.996094 0-11.046875-8.953125-20-20-20zm70.992188 0c-11.042969 0-19.996094 8.953125-19.996094 20 0 11.042968 8.953125 19.996094 19.996094 19.996094s19.996093-8.953126 19.996093-19.996094c0-11.046875-8.953124-20-19.996093-20zm-190.976563 90.058594c-.011718 11.035156-8.964844 19.972656-19.996094 19.972656-.007812 0-.015624 0-.023437 0l-46.855469-.054688c-.15625 0-.3125 0-.46875-.003906-47.832031-1.175781-88.574218-18.046875-117.820312-48.800781-29.964844-31.511719-45.8046878-75.8125-45.8046878-128.117188 0-38.132812 11.3320318-74.957031 33.6796878-109.453125 16.945312-26.160156 40.246094-50.960937 69.246094-73.761718-7.230469.667968-14.371094 1.058593-21.3125 1.058593-23.957032 0-45.605469-4.503906-60.976563-17.214843-10.074219-8.328126-21.824219-24.019532-20.6171875-51.476563.4843745-11.03125 9.8203125-19.601563 20.8554685-19.097656 11.035156.484375 19.585938 9.820312 19.101563 20.855469-.585938 13.328124 4.304687 17.371093 6.144531 18.894531 4.90625 4.054687 18.386719 10.363281 53.554688 7.042969 26.339843-2.484376 55.179687-9.324219 78.351562-14.820313 3.9375-.933594 7.546875-1.785156 10.878906-2.558594l-25.582031-66.222656c-.890625-2.296875-1.34375-4.742187-1.34375-7.207031v-1c0-6.566406 3.226563-12.71875 8.632813-16.453125 5.402343-3.730469 12.296874-4.574219 18.441406-2.25 45.007812 17.039062 88.78125 17.039062 133.828125 0 6.144531-2.320313 13.035156-1.480469 18.441406 2.25 5.402344 3.734375 8.628906 9.886719 8.628906 16.453125v1c0 2.464844-.453125 4.910156-1.34375 7.207031l-26.972656 69.816406c10.339844 4.882813 24.539063 12.101563 40.566406 21.671875 9.484375 5.664063 12.582031 17.9375 6.917969 27.421875-5.660156 9.484375-17.9375 12.578125-27.417969 6.917969-22.765625-13.589844-41.40625-21.949219-48.699219-25.046875h-72.035156c-.628906 0-1.480468.070313-2.5.203125-12.027344 5.15625-51.082031 23.03125-89.488281 52.933594-59.046875 45.96875-88.984375 97.390625-88.984375 152.835937 0 82.496094 47.652344 134.945313 124.382812 136.925781l46.617188.054688c11.042969.015625 19.988281 8.976562 19.972656 20.023438zm-16.34375-441.949219 15.058594 38.976562h52.566406l15.0625-38.980469c-27.535156 5.273438-55.164062 5.277344-82.6875.003907zm-52.644531 382.933593c11.042969 0 19.996094-8.953124 19.996094-20v-13.410156c20.085937-5.058594 34.996093-23.171875 34.996093-44.679687v-8.015625c0-25.363282-20.816406-45.996094-46.398437-45.996094h-19.300781c-3.367188 0-6.324219-3.214844-6.324219-6.882812v-.84375c0-3.507813 2.71875-6.15625 6.324219-6.15625h35.703125c11.042969 0 19.996093-8.949219 19.996093-19.996094 0-11.042969-8.953124-19.996094-19.996093-19.996094h-5v-13c0-11.042969-8.953125-19.996094-19.996094-19.996094-11.046875 0-20 8.953125-20 19.996094v13.933594c-21.101563 4.296875-37.023437 22.941406-37.023437 45.214844v.847656c0 25.847656 20.777343 46.875 46.316406 46.875h19.300781c3.652344 0 6.402344 2.578125 6.402344 6v8.015625c0 3.476562-2.75 6.101562-6.402344 6.101562h-46.589844c-11.046875 0-20 8.949219-20 19.996094 0 11.042969 8.953125 19.996094 20 19.996094h17.996094v12c0 11.042969 8.953125 19.996093 20 19.996093zm0 0" fill="url(#a)"/></svg>