<svg height="512pt" viewBox="0 0 512 512" width="512pt" xmlns="http://www.w3.org/2000/svg" xmlns:xlink="http://www.w3.org/1999/xlink"><linearGradient id="a" gradientUnits="userSpaceOnUse" x1="0" x2="512" y1="256" y2="256"><stop offset="0" stop-color="#00f2fe"/><stop offset=".0208" stop-color="#03effe"/><stop offset=".2931" stop-color="#24d2fe"/><stop offset=".5538" stop-color="#3cbdfe"/><stop offset=".7956" stop-color="#4ab0fe"/><stop offset="1" stop-color="#4facfe"/></linearGradient><path d="m432 0h-231c-21.925781 0-43.101562 9.132812-58.15625 25.066406l-112.574219 112.335938c-18.425781 14.667968-30.269531 37.269531-30.269531 62.597656v232c0 44.113281 35.886719 80 80 80h231c22.71875 0 43.238281-9.535156 57.816406-24.792969.125-.121093.261719-.222656.386719-.347656l119.425781-118.347656.101563-.105469c15.003906-15.09375 23.269531-35.125 23.269531-56.40625v-232c0-44.113281-35.886719-80-80-80zm-87.554688 127.355469c-10.183593-4.707031-21.507812-7.355469-33.445312-7.355469h-62.964844l81.703125-80h102.15625zm-173.125-74.199219.472657-.488281c7.648437-8.167969 18.019531-12.667969 29.207031-12.667969h71.566406l-81.707031 80h-86.519531zm300.679688 258.84375c0 10.617188-4.113281 20.613281-11.585938 28.152344l-69.414062 68.792968v-36.945312c0-11.046875-8.953125-20-20-20s-20 8.953125-20 20v60c0 22.054688-17.945312 40-40 40h-231c-22.054688 0-40-17.945312-40-40v-232c0-22.054688 17.945312-40 40-40h98v92c0 11.046875 8.953125 20 20 20s20-8.953125 20-20v-92h93c22.054688 0 40 17.945312 40 40v72c0 11.046875 8.953125 20 20 20s20-8.953125 20-20v-72c0-17.632812-5.746094-33.941406-15.449219-47.179688l91.734375-91.636718c3.003906 5.613281 4.714844 12.015625 4.714844 18.816406zm-161 60v40c0 11.046875-8.953125 20-20 20s-20-8.953125-20-20v-40c0-11.046875 8.953125-20 20-20s20 8.953125 20 20zm0 0" fill="url(#a)"/></svg>