<svg version="1.1" id="Layer_1" xmlns="http://www.w3.org/2000/svg" xmlns:xlink="http://www.w3.org/1999/xlink" x="0px" y="0px" viewBox="0 0 512 512" style="enable-background:new 0 0 512 512;" xml:space="preserve">
<g>
	<linearGradient id="SVGID_1_" gradientUnits="userSpaceOnUse" x1="47.4505" y1="256" x2="464.5495" y2="256">
		<stop offset="0" style="stop-color:#00F2FE"/>
		<stop offset="0.0208" style="stop-color:#03EFFE"/>
		<stop offset="0.2931" style="stop-color:#24D2FE"/>
		<stop offset="0.5538" style="stop-color:#3CBDFE"/>
		<stop offset="0.7956" style="stop-color:#4AB0FE"/>
		<stop offset="1" style="stop-color:#4FACFE"/>
	</linearGradient>
	
		<path style="fill:none;stroke:url(#SVGID_1_);stroke-width:40;stroke-linecap:round;stroke-linejoin:round;stroke-miterlimit:10;" d="&#10;&#9;&#9;M256,206.123v102.624 M215.431,273.792L256,314.361l40.569-40.569 M165.143,354.951v47.918h181.714v-47.918 M301.064,23v80.486&#10;&#9;&#9;c0,33.137,26.863,60,60,60h79.486 M444.55,331.909V163.486L301.064,20H127.45c-33.137,0-60,26.863-60,60v352&#10;&#9;&#9;c0,33.137,26.863,60,60,60H384.55c33.137,0,60-26.863,60-60v-0.091"/>
</g>
<g>
</g>
<g>
</g>
<g>
</g>
<g>
</g>
<g>
</g>
<g>
</g>
<g>
</g>
<g>
</g>
<g>
</g>
<g>
</g>
<g>
</g>
<g>
</g>
<g>
</g>
<g>
</g>
<g>
</g>
</svg>