<svg version="1.1" id="Layer_1" xmlns="http://www.w3.org/2000/svg" xmlns:xlink="http://www.w3.org/1999/xlink" x="0px" y="0px" viewBox="0 0 512 512" style="enable-background:new 0 0 512 512;" xml:space="preserve">
<g>
	<linearGradient id="SVGID_1_" gradientUnits="userSpaceOnUse" x1="24.4205" y1="256" x2="487.5795" y2="256">
		<stop offset="0" style="stop-color:#00F2FE"/>
		<stop offset="0.0208" style="stop-color:#03EFFE"/>
		<stop offset="0.2931" style="stop-color:#24D2FE"/>
		<stop offset="0.5538" style="stop-color:#3CBDFE"/>
		<stop offset="0.7956" style="stop-color:#4AB0FE"/>
		<stop offset="1" style="stop-color:#4FACFE"/>
	</linearGradient>
	
		<path style="fill:none;stroke:url(#SVGID_1_);stroke-width:40;stroke-linecap:round;stroke-linejoin:round;stroke-miterlimit:10;" d="&#10;&#9;&#9;M356.086,232.768h105.191 M422.039,278.306l45.541-45.537l-45.541-45.537 M390.198,113.48V80.049&#10;&#9;&#9;c0-33.164-26.887-60.049-60.054-60.049H44.42 M278.376,336.788V141.719c0-25.799-16.481-48.716-40.941-56.926L44.42,20v373.687&#10;&#9;&#9;c0,25.8,16.481,48.716,40.941,56.926l113.849,38.218c37.321,12.528,75.88-13.592,78.967-51.961l51.967,0&#10;&#9;&#9;c33.167,0,60.054-26.885,60.054-60.049v-23.763"/>
</g>
<g>
</g>
<g>
</g>
<g>
</g>
<g>
</g>
<g>
</g>
<g>
</g>
<g>
</g>
<g>
</g>
<g>
</g>
<g>
</g>
<g>
</g>
<g>
</g>
<g>
</g>
<g>
</g>
<g>
</g>
</svg>