<svg id="Layer_1" enable-background="new 0 0 511.967 511.967" height="512" viewBox="0 0 511.967 511.967" width="512" xmlns="http://www.w3.org/2000/svg" xmlns:xlink="http://www.w3.org/1999/xlink"><linearGradient id="SVGID_1_" gradientUnits="userSpaceOnUse" x1=".016" x2="511.951" y1="255.983" y2="255.983"><stop offset="0" stop-color="#00f2fe"/><stop offset=".0208" stop-color="#03effe"/><stop offset=".2931" stop-color="#24d2fe"/><stop offset=".5538" stop-color="#3cbdfe"/><stop offset=".7956" stop-color="#4ab0fe"/><stop offset="1" stop-color="#4facfe"/></linearGradient><path d="m235.983 332v-11.045c-27.074-.931-48.02-21.982-48.02-48.704 0-11.046 8.954-20 20-20s20 8.954 20 20c0 6.011 5.126 8.749 9.89 8.749h29.785c8.133 0 16.366-5.152 16.366-15v-12.159c0-8.883-7.188-15.841-16.366-15.841h-18.328c-31.019 0-56.254-25.57-56.254-57v-7.294c0-15.115 5.898-29.211 16.608-39.69 7.353-7.196 16.42-12.131 26.319-14.467v-13.549c0-11.046 8.954-20 20-20s20 8.954 20 20v12.861c23.32 4.285 41.02 24.286 41.02 48.255 0 11.046-8.954 20-20 20s-20-8.954-20-20c0-5.706-5.269-9.116-10.362-9.116h-17.331c-9.266 0-16.254 6.752-16.254 15.706v7.294c0 9.215 7.443 17 16.254 17h18.327c15.014 0 29.116 5.714 39.709 16.09 10.741 10.521 16.657 24.638 16.657 39.751v12.159c0 28.067-20.508 50.593-48.02 54.419v11.581c0 11.046-8.954 20-20 20s-20-8.954-20-20zm272.394-87.223c-7.249-17.481-24.17-28.777-43.109-28.777h-42.285v-196c0-11.046-8.954-20-20-20h-289c-11.046 0-20 8.954-20 20v196h-47.285c-18.955 0-35.882 11.309-43.123 28.811-7.232 17.48-3.252 37.414 10.206 50.851l200.964 198.776c11.705 11.687 27.075 17.529 42.453 17.529 15.381 0 30.77-5.851 42.488-17.55l64.201-64.284c7.805-7.815 7.797-20.479-.019-28.284-7.815-7.805-20.478-7.798-28.284.019l-64.181 64.264c-7.829 7.817-20.568 7.817-28.463-.066l-200.964-198.778c-2.581-2.577-2.208-5.329-1.44-7.185.634-1.532 2.278-4.104 6.162-4.104h67.285c11.046 0 20-8.954 20-20v-195.999h249v196c0 11.046 8.954 20 20 20h62.285c3.881 0 5.525 2.568 6.16 4.099.769 1.854 1.144 4.604-1.43 7.182l-65.502 65.587c-7.805 7.815-7.797 20.479.019 28.284 7.815 7.805 20.478 7.798 28.284-.019l65.504-65.588c13.359-13.38 17.313-33.308 10.074-50.768z" fill="url(#SVGID_1_)"/></svg>