<svg version="1.1" id="Layer_1" xmlns="http://www.w3.org/2000/svg" xmlns:xlink="http://www.w3.org/1999/xlink" x="0px" y="0px" viewBox="0 0 512 512" style="enable-background:new 0 0 512 512;" xml:space="preserve">
<g>
	<linearGradient id="SVGID_1_" gradientUnits="userSpaceOnUse" x1="122.4594" y1="256" x2="389.5406" y2="256">
		<stop offset="0" style="stop-color:#00F2FE"/>
		<stop offset="0.0208" style="stop-color:#03EFFE"/>
		<stop offset="0.2931" style="stop-color:#24D2FE"/>
		<stop offset="0.5538" style="stop-color:#3CBDFE"/>
		<stop offset="0.7956" style="stop-color:#4AB0FE"/>
		<stop offset="1" style="stop-color:#4FACFE"/>
	</linearGradient>
	
		<path style="fill:none;stroke:url(#SVGID_1_);stroke-width:40;stroke-linecap:round;stroke-linejoin:round;stroke-miterlimit:10;" d="&#10;&#9;&#9;M291.933,379.847c0,19.868-16.088,35.974-35.933,35.974s-35.933-16.106-35.933-35.974c0-27.19,35.933-55.96,35.933-55.96&#10;&#9;&#9;S291.933,351.767,291.933,379.847z M307.225,43.506c0-12.982-10.524-23.506-23.506-23.506h-55.437&#10;&#9;&#9;c-12.982,0-23.506,10.524-23.506,23.506v57.275h102.449V43.506z M145.087,184.499h215.197 M369.541,345.994v-16.223&#10;&#9;&#9;c0-29.907-16.889-55.864-41.639-68.835c24.957-15.114,41.639-42.544,41.639-73.876l0,0c0-47.651-38.584-86.279-86.18-86.279H228.64&#10;&#9;&#9;c-47.596,0-86.18,38.628-86.18,86.279l0,0c0,31.332,16.682,58.763,41.639,73.876c-24.75,12.971-41.639,38.928-41.639,68.835&#10;&#9;&#9;v119.282c0,23.719,19.206,42.947,42.898,42.947h141.285c23.692,0,42.898-19.228,42.898-42.947v-3.058"/>
</g>
<g>
</g>
<g>
</g>
<g>
</g>
<g>
</g>
<g>
</g>
<g>
</g>
<g>
</g>
<g>
</g>
<g>
</g>
<g>
</g>
<g>
</g>
<g>
</g>
<g>
</g>
<g>
</g>
<g>
</g>
</svg>