<?xml version="1.0" encoding="UTF-8"?>
<svg xmlns="http://www.w3.org/2000/svg" xmlns:xlink="http://www.w3.org/1999/xlink" version="1.1" id="Capa_1" x="0px" y="0px" viewBox="0 0 512 512" style="enable-background:new 0 0 512 512;" xml:space="preserve" width="512" height="512">
<g>
	<linearGradient id="SVGID_1_" gradientUnits="userSpaceOnUse" x1="0" y1="256" x2="512" y2="256">
		<stop offset="0" style="stop-color:#00F2FE"/>
		<stop offset="0.0208" style="stop-color:#03EFFE"/>
		<stop offset="0.2931" style="stop-color:#24D2FE"/>
		<stop offset="0.5538" style="stop-color:#3CBDFE"/>
		<stop offset="0.7956" style="stop-color:#4AB0FE"/>
		<stop offset="1" style="stop-color:#4FACFE"/>
	</linearGradient>
	
		<path style="fill:none;stroke:url(#SVGID_1_);stroke-width:40;stroke-linecap:round;stroke-linejoin:round;stroke-miterlimit:10;" d="&#10;&#9;&#9;M214.431,46.954l222.419,222.419 M288.774,190.827V50.88 M445.969,347.138c0,0-46.031,35.87-46.031,72.167&#10;&#9;&#9;c0,25.263,20.609,45.742,46.031,45.742S492,444.567,492,419.304C492,383.007,445.969,347.138,445.969,347.138z M166.41,274.91&#10;&#9;&#9;l42.787-42.787c13.161-13.161,13.161-34.501,0-47.662l-56.55-56.55L62.198,218.36l56.55,56.55&#10;&#9;&#9;C131.909,288.071,153.248,288.071,166.41,274.91z M310.227,376.821l117.036-117.036L224.018,56.541L37.079,243.479&#10;&#9;&#9;c-22.772,22.772-22.772,59.692,0,82.464l120.78,120.78c22.502,22.502,58.82,22.769,81.649,0.8"/>
</g>















</svg>
